<?xml version="1.0" standalone="no"?>
<!DOCTYPE svg PUBLIC "-//W3C//DTD SVG 20010904//EN"
 "http://www.w3.org/TR/2001/REC-SVG-20010904/DTD/svg10.dtd">
<svg version="1.0" xmlns="http://www.w3.org/2000/svg"
 width="250.000000pt" height="250.000000pt" viewBox="0 0 250.000000 250.000000"
 preserveAspectRatio="xMidYMid meet">
<metadata>
Created by potrace 1.15, written by Peter Selinger 2001-2017
</metadata>
<g transform="translate(0.000000,250.000000) scale(0.100000,-0.100000)"
fill="#000000" stroke="none">
<path d="M0 1250 l0 -1250 1250 0 1250 0 0 1250 0 1250 -1250 0 -1250 0 0
-1250z m340 85 l0 -35 -115 0 c-108 0 -115 -1 -115 -20 0 -19 7 -20 100 -20
123 0 140 -11 140 -90 0 -81 -15 -90 -159 -90 -66 0 -122 3 -124 8 -3 4 -2 22
0 40 l5 32 114 0 c69 0 114 4 114 10 0 6 -38 10 -92 10 -134 0 -161 21 -150
112 8 69 26 78 162 78 l120 0 0 -35z m320 16 c0 -11 3 -26 6 -35 5 -14 -4 -16
-60 -16 l-66 0 0 -111 0 -110 -27 3 -28 3 0 105 0 105 -57 3 -58 3 0 34 0 35
145 0 c136 0 145 -1 145 -19z m291 0 c23 -18 24 -26 24 -126 0 -141 -4 -145
-151 -145 -142 0 -144 2 -144 167 l0 123 124 0 c107 0 127 -3 147 -19z m129
-37 l41 -55 40 55 c36 50 44 56 75 56 l35 0 -24 -32 c-13 -18 -27 -41 -30 -50
-4 -10 -11 -18 -17 -18 -5 0 -10 -6 -10 -12 0 -7 -9 -24 -20 -38 -14 -18 -20
-41 -20 -82 0 -58 0 -58 -30 -58 -30 0 -30 0 -30 58 0 48 -5 67 -31 108 -18
27 -42 66 -56 87 l-23 37 30 0 c24 0 37 -10 70 -56z m413 -41 c4 -54 7 -119 7
-145 0 -47 -1 -48 -30 -48 -28 0 -30 2 -30 40 l0 40 -67 0 c-78 0 -84 -3 -107
-47 -13 -26 -23 -33 -46 -33 -17 0 -30 3 -30 7 0 14 123 239 143 261 17 19 31
22 87 22 l67 0 6 -97z m165 7 c46 -49 88 -90 93 -90 5 0 9 41 9 90 0 89 0 90
25 90 l25 0 2 -125 c1 -69 2 -133 2 -142 1 -13 -8 -19 -30 -21 -29 -3 -39 6
-115 92 -46 53 -87 96 -91 96 -5 0 -8 -43 -8 -95 l0 -95 -31 0 c-31 0 -31 1
-25 38 3 20 6 85 6 145 l0 107 27 0 c21 0 45 -20 111 -90z m443 71 c23 -18 24
-26 24 -126 0 -141 -4 -145 -151 -145 -142 0 -144 2 -144 167 l0 123 124 0
c107 0 127 -3 147 -19z m87 -3 c6 -13 25 -45 42 -73 17 -27 38 -65 47 -82 15
-29 22 -33 56 -33 l39 0 -3 58 c-2 31 -2 78 -1 105 2 43 4 47 27 47 l25 0 0
-145 0 -145 -66 0 c-60 0 -68 3 -92 29 -21 21 -97 160 -140 254 -2 4 10 7 26
7 20 0 32 -7 40 -22z"/>
<path d="M732 1233 l3 -68 93 -3 92 -3 0 71 0 70 -95 0 -96 0 3 -67z"/>
<path d="M1346 1275 c-23 -35 -13 -45 45 -45 l49 0 0 35 c0 34 -1 35 -39 35
-30 0 -42 -5 -55 -25z"/>
<path d="M1882 1233 l3 -68 93 -3 92 -3 0 71 0 70 -95 0 -96 0 3 -67z"/>
</g>
</svg>
