<?xml version="1.0" standalone="no"?>
<!DOCTYPE svg PUBLIC "-//W3C//DTD SVG 1.1//EN" "http://www.w3.org/Graphics/SVG/1.1/DTD/svg11.dtd">
<svg width="1189px" height="2650px" version="1.1" xmlns="http://www.w3.org/2000/svg">

<!-- This file is a systemd-analyze SVG file. It is best rendered in a   -->
<!-- browser such as Chrome, Chromium or Firefox. Other applications     -->
<!-- that render these files properly but much slower are ImageMagick,   -->
<!-- gimp, inkscape, etc. To display the files on your system, just      -->
<!-- point your browser to this file.                                    -->

<!-- This plot was generated by systemd-analyze version 239              -->

<defs>
  <style type="text/css">
    <![CDATA[
      rect       { stroke-width: 1; stroke-opacity: 0; }
      rect.background   { fill: rgb(255,255,255); }
      rect.activating   { fill: rgb(255,0,0); fill-opacity: 0.7; }
      rect.active       { fill: rgb(200,150,150); fill-opacity: 0.7; }
      rect.deactivating { fill: rgb(150,100,100); fill-opacity: 0.7; }
      rect.kernel       { fill: rgb(150,150,150); fill-opacity: 0.7; }
      rect.initrd       { fill: rgb(150,150,150); fill-opacity: 0.7; }
      rect.firmware     { fill: rgb(150,150,150); fill-opacity: 0.7; }
      rect.loader       { fill: rgb(150,150,150); fill-opacity: 0.7; }
      rect.userspace    { fill: rgb(150,150,150); fill-opacity: 0.7; }
      rect.security     { fill: rgb(144,238,144); fill-opacity: 0.7; }
      rect.generators   { fill: rgb(102,204,255); fill-opacity: 0.7; }
      rect.unitsload    { fill: rgb( 82,184,255); fill-opacity: 0.7; }
      rect.box   { fill: rgb(240,240,240); stroke: rgb(192,192,192); }
      line       { stroke: rgb(64,64,64); stroke-width: 1; }
//    line.sec1  { }
      line.sec5  { stroke-width: 2; }
      line.sec01 { stroke: rgb(224,224,224); stroke-width: 1; }
      text       { font-family: Verdana, Helvetica; font-size: 14px; }
      text.left  { font-family: Verdana, Helvetica; font-size: 14px; text-anchor: start; }
      text.right { font-family: Verdana, Helvetica; font-size: 14px; text-anchor: end; }
      text.sec   { font-size: 10px; }
    ]]>
   </style>
</defs>

<rect class="background" width="100%" height="100%" />
<text x="20" y="50">Startup finished in 3.556s (kernel) + 999ms (userspace) = 4.555s
graphical.target reached after 807ms in userspace</text><text x="20" y="30">Arch Linux scitickart (Linux 4.18.4-arch1-1-ARCH #1 SMP PREEMPT Wed Aug 22 07:33:26 UTC 2018) x86-64 </text><g transform="translate(20.000,100)">
<rect class="box" x="0" y="0" width="455.535" height="2400.000" />
  <line class="sec5" x1="0.000" y1="0" x2="0.000" y2="2400.000" />
  <text class="sec" x="0.000" y="-5.000" >0.0s</text>
  <line class="sec01" x1="10.000" y1="0" x2="10.000" y2="2400.000" />
  <line class="sec01" x1="20.000" y1="0" x2="20.000" y2="2400.000" />
  <line class="sec01" x1="30.000" y1="0" x2="30.000" y2="2400.000" />
  <line class="sec01" x1="40.000" y1="0" x2="40.000" y2="2400.000" />
  <line class="sec01" x1="50.000" y1="0" x2="50.000" y2="2400.000" />
  <line class="sec01" x1="60.000" y1="0" x2="60.000" y2="2400.000" />
  <line class="sec01" x1="70.000" y1="0" x2="70.000" y2="2400.000" />
  <line class="sec01" x1="80.000" y1="0" x2="80.000" y2="2400.000" />
  <line class="sec01" x1="90.000" y1="0" x2="90.000" y2="2400.000" />
  <line class="sec1" x1="100.000" y1="0" x2="100.000" y2="2400.000" />
  <text class="sec" x="100.000" y="-5.000" >1.0s</text>
  <line class="sec01" x1="110.000" y1="0" x2="110.000" y2="2400.000" />
  <line class="sec01" x1="120.000" y1="0" x2="120.000" y2="2400.000" />
  <line class="sec01" x1="130.000" y1="0" x2="130.000" y2="2400.000" />
  <line class="sec01" x1="140.000" y1="0" x2="140.000" y2="2400.000" />
  <line class="sec01" x1="150.000" y1="0" x2="150.000" y2="2400.000" />
  <line class="sec01" x1="160.000" y1="0" x2="160.000" y2="2400.000" />
  <line class="sec01" x1="170.000" y1="0" x2="170.000" y2="2400.000" />
  <line class="sec01" x1="180.000" y1="0" x2="180.000" y2="2400.000" />
  <line class="sec01" x1="190.000" y1="0" x2="190.000" y2="2400.000" />
  <line class="sec1" x1="200.000" y1="0" x2="200.000" y2="2400.000" />
  <text class="sec" x="200.000" y="-5.000" >2.0s</text>
  <line class="sec01" x1="210.000" y1="0" x2="210.000" y2="2400.000" />
  <line class="sec01" x1="220.000" y1="0" x2="220.000" y2="2400.000" />
  <line class="sec01" x1="230.000" y1="0" x2="230.000" y2="2400.000" />
  <line class="sec01" x1="240.000" y1="0" x2="240.000" y2="2400.000" />
  <line class="sec01" x1="250.000" y1="0" x2="250.000" y2="2400.000" />
  <line class="sec01" x1="260.000" y1="0" x2="260.000" y2="2400.000" />
  <line class="sec01" x1="270.000" y1="0" x2="270.000" y2="2400.000" />
  <line class="sec01" x1="280.000" y1="0" x2="280.000" y2="2400.000" />
  <line class="sec01" x1="290.000" y1="0" x2="290.000" y2="2400.000" />
  <line class="sec1" x1="300.000" y1="0" x2="300.000" y2="2400.000" />
  <text class="sec" x="300.000" y="-5.000" >3.0s</text>
  <line class="sec01" x1="310.000" y1="0" x2="310.000" y2="2400.000" />
  <line class="sec01" x1="320.000" y1="0" x2="320.000" y2="2400.000" />
  <line class="sec01" x1="330.000" y1="0" x2="330.000" y2="2400.000" />
  <line class="sec01" x1="340.000" y1="0" x2="340.000" y2="2400.000" />
  <line class="sec01" x1="350.000" y1="0" x2="350.000" y2="2400.000" />
  <line class="sec01" x1="360.000" y1="0" x2="360.000" y2="2400.000" />
  <line class="sec01" x1="370.000" y1="0" x2="370.000" y2="2400.000" />
  <line class="sec01" x1="380.000" y1="0" x2="380.000" y2="2400.000" />
  <line class="sec01" x1="390.000" y1="0" x2="390.000" y2="2400.000" />
  <line class="sec1" x1="400.000" y1="0" x2="400.000" y2="2400.000" />
  <text class="sec" x="400.000" y="-5.000" >4.0s</text>
  <line class="sec01" x1="410.000" y1="0" x2="410.000" y2="2400.000" />
  <line class="sec01" x1="420.000" y1="0" x2="420.000" y2="2400.000" />
  <line class="sec01" x1="430.000" y1="0" x2="430.000" y2="2400.000" />
  <line class="sec01" x1="440.000" y1="0" x2="440.000" y2="2400.000" />
  <line class="sec01" x1="450.000" y1="0" x2="450.000" y2="2400.000" />
  <rect class="kernel" x="0.000" y="0.000" width="355.614" height="19.000" />
  <text class="left" x="5.000" y="14.000">kernel</text>
  <rect class="active" x="355.614" y="20.000" width="99.920" height="19.000" />
  <rect class="security" x="356.161" y="20.000" width="0.001" height="19.000" />
  <rect class="generators" x="362.511" y="20.000" width="2.357" height="19.000" />
  <rect class="unitsload" x="365.035" y="20.000" width="3.090" height="19.000" />
  <text class="left" x="360.614" y="34.000">systemd</text>
  <rect class="activating" x="368.131" y="40.000" width="0.000" height="19.000" />
  <rect class="active" x="368.131" y="40.000" width="87.404" height="19.000" />
  <rect class="deactivating" x="455.535" y="40.000" width="0.000" height="19.000" />
  <text class="left" x="373.131" y="54.000">-.mount</text>
  <rect class="activating" x="368.132" y="60.000" width="0.000" height="19.000" />
  <rect class="active" x="368.132" y="60.000" width="87.402" height="19.000" />
  <rect class="deactivating" x="455.535" y="60.000" width="0.000" height="19.000" />
  <text class="left" x="373.132" y="74.000">system.slice</text>
  <rect class="activating" x="368.132" y="80.000" width="0.000" height="19.000" />
  <rect class="active" x="368.132" y="80.000" width="87.402" height="19.000" />
  <rect class="deactivating" x="455.535" y="80.000" width="0.000" height="19.000" />
  <text class="left" x="373.132" y="94.000">-.slice</text>
  <rect class="activating" x="368.133" y="100.000" width="0.000" height="19.000" />
  <rect class="active" x="368.133" y="100.000" width="87.402" height="19.000" />
  <rect class="deactivating" x="455.535" y="100.000" width="0.000" height="19.000" />
  <text class="left" x="373.133" y="114.000">init.scope</text>
  <rect class="activating" x="369.364" y="120.000" width="0.000" height="19.000" />
  <rect class="active" x="369.364" y="120.000" width="86.171" height="19.000" />
  <rect class="deactivating" x="455.535" y="120.000" width="0.000" height="19.000" />
  <text class="left" x="374.364" y="134.000">systemd-initctl.socket</text>
  <rect class="activating" x="369.370" y="140.000" width="0.000" height="19.000" />
  <rect class="active" x="369.370" y="140.000" width="86.165" height="19.000" />
  <rect class="deactivating" x="455.535" y="140.000" width="0.000" height="19.000" />
  <text class="left" x="374.370" y="154.000">remote-fs.target</text>
  <rect class="activating" x="369.381" y="160.000" width="0.000" height="19.000" />
  <rect class="active" x="369.381" y="160.000" width="86.154" height="19.000" />
  <rect class="deactivating" x="455.535" y="160.000" width="0.000" height="19.000" />
  <text class="left" x="374.381" y="174.000">systemd-journald.socket</text>
  <rect class="activating" x="369.529" y="180.000" width="2.323" height="19.000" />
  <rect class="active" x="371.852" y="180.000" width="83.683" height="19.000" />
  <rect class="deactivating" x="455.535" y="180.000" width="0.000" height="19.000" />
  <text class="left" x="374.529" y="194.000">sys-kernel-debug.mount (23ms)</text>
  <rect class="activating" x="369.682" y="200.000" width="2.308" height="19.000" />
  <rect class="active" x="371.990" y="200.000" width="83.544" height="19.000" />
  <rect class="deactivating" x="455.535" y="200.000" width="0.000" height="19.000" />
  <text class="left" x="374.682" y="214.000">systemd-modules-load.service (23ms)</text>
  <rect class="activating" x="369.709" y="220.000" width="0.000" height="19.000" />
  <rect class="active" x="369.709" y="220.000" width="85.826" height="19.000" />
  <rect class="deactivating" x="455.535" y="220.000" width="0.000" height="19.000" />
  <text class="left" x="374.709" y="234.000">systemd-udevd-kernel.socket</text>
  <rect class="activating" x="370.142" y="240.000" width="0.000" height="19.000" />
  <rect class="active" x="370.142" y="240.000" width="85.393" height="19.000" />
  <rect class="deactivating" x="455.535" y="240.000" width="0.000" height="19.000" />
  <text class="left" x="375.142" y="254.000">systemd-coredump.socket</text>
  <rect class="activating" x="370.153" y="260.000" width="0.000" height="19.000" />
  <rect class="active" x="370.153" y="260.000" width="85.382" height="19.000" />
  <rect class="deactivating" x="455.535" y="260.000" width="0.000" height="19.000" />
  <text class="left" x="375.153" y="274.000">systemd-ask-password-wall.path</text>
  <rect class="activating" x="370.168" y="280.000" width="0.000" height="19.000" />
  <rect class="active" x="370.168" y="280.000" width="85.367" height="19.000" />
  <rect class="deactivating" x="455.535" y="280.000" width="0.000" height="19.000" />
  <text class="left" x="375.168" y="294.000">systemd-journald-audit.socket</text>
  <rect class="activating" x="370.198" y="300.000" width="0.000" height="19.000" />
  <rect class="active" x="370.198" y="300.000" width="85.337" height="19.000" />
  <rect class="deactivating" x="455.535" y="300.000" width="0.000" height="19.000" />
  <text class="left" x="375.198" y="314.000">lvm2-lvmpolld.socket</text>
  <rect class="activating" x="370.208" y="320.000" width="0.000" height="19.000" />
  <rect class="active" x="370.208" y="320.000" width="85.327" height="19.000" />
  <rect class="deactivating" x="455.535" y="320.000" width="0.000" height="19.000" />
  <text class="left" x="375.208" y="334.000">systemd-journald-dev-log.socket</text>
  <rect class="activating" x="370.240" y="340.000" width="0.000" height="19.000" />
  <rect class="active" x="370.240" y="340.000" width="85.295" height="19.000" />
  <rect class="deactivating" x="455.535" y="340.000" width="0.000" height="19.000" />
  <text class="left" x="375.240" y="354.000">system-getty.slice</text>
  <rect class="activating" x="370.251" y="360.000" width="0.000" height="19.000" />
  <rect class="active" x="370.251" y="360.000" width="85.283" height="19.000" />
  <rect class="deactivating" x="455.535" y="360.000" width="0.000" height="19.000" />
  <text class="left" x="375.251" y="374.000">systemd-udevd-control.socket</text>
  <rect class="activating" x="370.376" y="380.000" width="9.234" height="19.000" />
  <rect class="active" x="379.610" y="380.000" width="75.925" height="19.000" />
  <rect class="deactivating" x="455.535" y="380.000" width="0.000" height="19.000" />
  <text class="left" x="375.376" y="394.000">systemd-udev-trigger.service (92ms)</text>
  <rect class="activating" x="370.482" y="400.000" width="1.578" height="19.000" />
  <rect class="active" x="372.059" y="400.000" width="83.476" height="19.000" />
  <rect class="deactivating" x="455.535" y="400.000" width="0.000" height="19.000" />
  <text class="left" x="375.482" y="414.000">kmod-static-nodes.service (15ms)</text>
  <rect class="activating" x="370.619" y="420.000" width="1.456" height="19.000" />
  <rect class="active" x="372.075" y="420.000" width="83.460" height="19.000" />
  <rect class="deactivating" x="455.535" y="420.000" width="0.000" height="19.000" />
  <text class="left" x="375.619" y="434.000">dev-hugepages.mount (14ms)</text>
  <rect class="activating" x="370.634" y="440.000" width="0.000" height="19.000" />
  <rect class="active" x="370.634" y="440.000" width="84.900" height="19.000" />
  <rect class="deactivating" x="455.535" y="440.000" width="0.000" height="19.000" />
  <text class="left" x="375.634" y="454.000">dm-event.socket</text>
  <rect class="activating" x="370.653" y="460.000" width="0.000" height="19.000" />
  <rect class="active" x="370.653" y="460.000" width="84.882" height="19.000" />
  <rect class="deactivating" x="455.535" y="460.000" width="0.000" height="19.000" />
  <text class="left" x="375.653" y="474.000">systemd-ask-password-console.path</text>
  <rect class="activating" x="370.656" y="480.000" width="0.000" height="19.000" />
  <rect class="active" x="370.656" y="480.000" width="84.879" height="19.000" />
  <rect class="deactivating" x="455.535" y="480.000" width="0.000" height="19.000" />
  <text class="left" x="375.656" y="494.000">cryptsetup.target</text>
  <rect class="activating" x="370.659" y="500.000" width="0.000" height="19.000" />
  <rect class="active" x="370.659" y="500.000" width="84.876" height="19.000" />
  <rect class="deactivating" x="455.535" y="500.000" width="0.000" height="19.000" />
  <text class="left" x="375.659" y="514.000">paths.target</text>
  <rect class="activating" x="370.690" y="520.000" width="0.000" height="19.000" />
  <rect class="active" x="370.690" y="520.000" width="84.844" height="19.000" />
  <rect class="deactivating" x="455.535" y="520.000" width="0.000" height="19.000" />
  <text class="left" x="375.690" y="534.000">proc-sys-fs-binfmt_misc.automount</text>
  <rect class="activating" x="370.731" y="540.000" width="0.000" height="19.000" />
  <rect class="active" x="370.731" y="540.000" width="84.804" height="19.000" />
  <rect class="deactivating" x="455.535" y="540.000" width="0.000" height="19.000" />
  <text class="left" x="375.731" y="554.000">system-systemd\x2dfsck.slice</text>
  <rect class="activating" x="370.837" y="560.000" width="1.308" height="19.000" />
  <rect class="active" x="372.145" y="560.000" width="83.390" height="19.000" />
  <rect class="deactivating" x="455.535" y="560.000" width="0.000" height="19.000" />
  <text class="left" x="375.837" y="574.000">systemd-remount-fs.service (13ms)</text>
  <rect class="activating" x="370.887" y="580.000" width="0.000" height="19.000" />
  <rect class="active" x="370.887" y="580.000" width="84.648" height="19.000" />
  <rect class="deactivating" x="455.535" y="580.000" width="0.000" height="19.000" />
  <text class="left" x="375.887" y="594.000">user.slice</text>
  <rect class="activating" x="370.893" y="600.000" width="0.000" height="19.000" />
  <rect class="active" x="370.893" y="600.000" width="84.642" height="19.000" />
  <rect class="deactivating" x="455.535" y="600.000" width="0.000" height="19.000" />
  <text class="left" x="375.893" y="614.000">slices.target</text>
  <rect class="activating" x="371.090" y="620.000" width="7.455" height="19.000" />
  <rect class="active" x="378.545" y="620.000" width="76.990" height="19.000" />
  <rect class="deactivating" x="455.535" y="620.000" width="0.000" height="19.000" />
  <text class="left" x="376.090" y="634.000">systemd-journald.service (74ms)</text>
  <rect class="activating" x="371.117" y="640.000" width="0.000" height="19.000" />
  <rect class="active" x="371.117" y="640.000" width="84.418" height="19.000" />
  <rect class="deactivating" x="455.535" y="640.000" width="0.000" height="19.000" />
  <text class="left" x="376.117" y="654.000">lvm2-lvmetad.socket</text>
  <rect class="activating" x="371.243" y="660.000" width="38.894" height="19.000" />
  <rect class="active" x="410.137" y="660.000" width="45.398" height="19.000" />
  <rect class="deactivating" x="455.535" y="660.000" width="0.000" height="19.000" />
  <text class="left" x="376.243" y="674.000">lvm2-monitor.service (388ms)</text>
  <rect class="activating" x="371.375" y="680.000" width="0.895" height="19.000" />
  <rect class="active" x="372.269" y="680.000" width="83.266" height="19.000" />
  <rect class="deactivating" x="455.535" y="680.000" width="0.000" height="19.000" />
  <text class="left" x="376.375" y="694.000">dev-mqueue.mount (8ms)</text>
  <rect class="activating" x="371.381" y="700.000" width="0.000" height="19.000" />
  <rect class="active" x="371.381" y="700.000" width="84.154" height="19.000" />
  <rect class="deactivating" x="455.535" y="700.000" width="0.000" height="19.000" />
  <text class="left" x="376.381" y="714.000">swap.target</text>
  <rect class="activating" x="371.534" y="720.000" width="2.089" height="19.000" />
  <rect class="active" x="373.623" y="720.000" width="81.912" height="19.000" />
  <rect class="deactivating" x="455.535" y="720.000" width="0.000" height="19.000" />
  <text class="left" x="376.534" y="734.000">tmp.mount (20ms)</text>
  <rect class="activating" x="371.652" y="740.000" width="0.000" height="19.000" />
  <rect class="active" x="371.652" y="740.000" width="83.882" height="19.000" />
  <rect class="deactivating" x="455.535" y="740.000" width="0.000" height="19.000" />
  <text class="left" x="376.652" y="754.000">getty.target</text>
  <rect class="activating" x="371.743" y="760.000" width="29.185" height="19.000" />
  <rect class="active" x="400.928" y="760.000" width="54.606" height="19.000" />
  <rect class="deactivating" x="455.535" y="760.000" width="0.000" height="19.000" />
  <text class="left" x="376.743" y="774.000">dev-sda1.device (291ms)</text>
  <rect class="activating" x="372.418" y="780.000" width="1.279" height="19.000" />
  <rect class="active" x="373.697" y="780.000" width="81.837" height="19.000" />
  <rect class="deactivating" x="455.535" y="780.000" width="0.000" height="19.000" />
  <text class="left" x="377.418" y="794.000">systemd-random-seed.service (12ms)</text>
  <rect class="activating" x="373.178" y="800.000" width="2.193" height="19.000" />
  <rect class="active" x="375.372" y="800.000" width="80.163" height="19.000" />
  <rect class="deactivating" x="455.535" y="800.000" width="0.000" height="19.000" />
  <text class="left" x="378.178" y="814.000">systemd-tmpfiles-setup-dev.service (21ms)</text>
  <rect class="activating" x="373.299" y="820.000" width="0.960" height="19.000" />
  <rect class="active" x="374.259" y="820.000" width="81.276" height="19.000" />
  <rect class="deactivating" x="455.535" y="820.000" width="0.000" height="19.000" />
  <text class="left" x="378.299" y="834.000">sys-kernel-config.mount (9ms)</text>
  <rect class="activating" x="373.420" y="840.000" width="1.103" height="19.000" />
  <rect class="active" x="374.523" y="840.000" width="81.012" height="19.000" />
  <rect class="deactivating" x="455.535" y="840.000" width="0.000" height="19.000" />
  <text class="left" x="378.420" y="854.000">systemd-sysctl.service (11ms)</text>
  <rect class="activating" x="373.842" y="860.000" width="0.000" height="19.000" />
  <rect class="active" x="373.842" y="860.000" width="81.693" height="19.000" />
  <rect class="deactivating" x="455.535" y="860.000" width="0.000" height="19.000" />
  <text class="left" x="378.842" y="874.000">lvm2-lvmetad.service</text>
  <rect class="activating" x="375.485" y="880.000" width="5.423" height="19.000" />
  <rect class="active" x="380.907" y="880.000" width="74.628" height="19.000" />
  <rect class="deactivating" x="455.535" y="880.000" width="0.000" height="19.000" />
  <text class="left" x="380.485" y="894.000">systemd-udevd.service (54ms)</text>
  <rect class="activating" x="378.668" y="900.000" width="15.550" height="19.000" />
  <rect class="active" x="394.218" y="900.000" width="61.317" height="19.000" />
  <rect class="deactivating" x="455.535" y="900.000" width="0.000" height="19.000" />
  <text class="left" x="383.668" y="914.000">systemd-journal-flush.service (155ms)</text>
  <rect class="activating" x="383.691" y="920.000" width="0.000" height="19.000" />
  <rect class="active" x="383.691" y="920.000" width="71.844" height="19.000" />
  <rect class="deactivating" x="455.535" y="920.000" width="0.000" height="19.000" />
  <text class="left" x="388.691" y="934.000">sys-module-configfs.device</text>
  <rect class="activating" x="390.852" y="940.000" width="0.000" height="19.000" />
  <rect class="active" x="390.852" y="940.000" width="64.683" height="19.000" />
  <rect class="deactivating" x="455.535" y="940.000" width="0.000" height="19.000" />
  <text class="left" x="395.852" y="954.000">sys-devices-pci0000:00-0000:00:02.0-backlight-acpi_video0.device</text>
  <rect class="activating" x="390.910" y="960.000" width="0.000" height="19.000" />
  <rect class="active" x="390.910" y="960.000" width="64.625" height="19.000" />
  <rect class="deactivating" x="455.535" y="960.000" width="0.000" height="19.000" />
  <text class="left" x="395.910" y="974.000">system-systemd\x2dbacklight.slice</text>
  <rect class="activating" x="391.239" y="980.000" width="1.977" height="19.000" />
  <rect class="active" x="393.216" y="980.000" width="62.318" height="19.000" />
  <rect class="deactivating" x="455.535" y="980.000" width="0.000" height="19.000" />
  <text class="left" x="396.239" y="994.000">systemd-backlight@backlight:acpi_video0.service (19ms)</text>
  <rect class="activating" x="392.215" y="1000.000" width="0.000" height="19.000" />
  <rect class="active" x="392.215" y="1000.000" width="63.320" height="19.000" />
  <rect class="deactivating" x="455.535" y="1000.000" width="0.000" height="19.000" />
  <text class="left" x="397.215" y="1014.000">sys-devices-pci0000:00-0000:00:02.0-drm-card0-card0\x2dLVDS\x2d1-intel_backlight.device</text>
  <rect class="activating" x="392.463" y="1020.000" width="0.837" height="19.000" />
  <rect class="active" x="393.300" y="1020.000" width="62.235" height="19.000" />
  <rect class="deactivating" x="455.535" y="1020.000" width="0.000" height="19.000" />
  <text class="left" x="397.463" y="1034.000">systemd-backlight@backlight:intel_backlight.service (8ms)</text>
  <rect class="activating" x="396.900" y="1040.000" width="0.000" height="19.000" />
  <rect class="active" x="396.900" y="1040.000" width="58.635" height="19.000" />
  <rect class="deactivating" x="455.535" y="1040.000" width="0.000" height="19.000" />
  <text class="left" x="401.900" y="1054.000">dev-disk-by\x2dpath-pci\x2d0000:00:1f.2\x2data\x2d1.device</text>
  <rect class="activating" x="396.901" y="1060.000" width="0.000" height="19.000" />
  <rect class="active" x="396.901" y="1060.000" width="58.634" height="19.000" />
  <rect class="deactivating" x="455.535" y="1060.000" width="0.000" height="19.000" />
  <text class="left" x="401.901" y="1074.000">dev-disk-by\x2did-wwn\x2d0x5002538d428ce390.device</text>
  <rect class="activating" x="396.905" y="1080.000" width="0.000" height="19.000" />
  <rect class="active" x="396.905" y="1080.000" width="58.629" height="19.000" />
  <rect class="deactivating" x="455.535" y="1080.000" width="0.000" height="19.000" />
  <text class="left" x="401.905" y="1094.000">dev-disk-by\x2did-ata\x2dSamsung_SSD_850_EVO_250GB_S2R6NX0JC91988R.device</text>
  <rect class="activating" x="396.906" y="1100.000" width="0.000" height="19.000" />
  <rect class="active" x="396.906" y="1100.000" width="58.629" height="19.000" />
  <rect class="deactivating" x="455.535" y="1100.000" width="0.000" height="19.000" />
  <text class="left" x="401.906" y="1114.000">dev-sda.device</text>
  <rect class="activating" x="396.907" y="1120.000" width="0.000" height="19.000" />
  <rect class="active" x="396.907" y="1120.000" width="58.628" height="19.000" />
  <rect class="deactivating" x="455.535" y="1120.000" width="0.000" height="19.000" />
  <text class="left" x="401.907" y="1134.000">sys-devices-pci0000:00-0000:00:1f.2-ata1-host0-target0:0:0-0:0:0:0-block-sda.device</text>
  <rect class="activating" x="398.735" y="1140.000" width="0.000" height="19.000" />
  <rect class="active" x="398.735" y="1140.000" width="56.800" height="19.000" />
  <rect class="deactivating" x="455.535" y="1140.000" width="0.000" height="19.000" />
  <text class="left" x="403.735" y="1154.000">dev-disk-by\x2duuid-24a47507\x2db532\x2d4185\x2d9db5\x2d4953a20ff305.device</text>
  <rect class="activating" x="398.736" y="1160.000" width="0.000" height="19.000" />
  <rect class="active" x="398.736" y="1160.000" width="56.798" height="19.000" />
  <rect class="deactivating" x="455.535" y="1160.000" width="0.000" height="19.000" />
  <text class="left" x="403.736" y="1174.000">dev-disk-by\x2dpath-pci\x2d0000:00:1f.2\x2data\x2d1\x2dpart2.device</text>
  <rect class="activating" x="398.737" y="1180.000" width="0.000" height="19.000" />
  <rect class="active" x="398.737" y="1180.000" width="56.797" height="19.000" />
  <rect class="deactivating" x="455.535" y="1180.000" width="0.000" height="19.000" />
  <text class="left" x="403.737" y="1194.000">dev-disk-by\x2dpartuuid-025fea6c\x2d02.device</text>
  <rect class="activating" x="398.738" y="1200.000" width="0.000" height="19.000" />
  <rect class="active" x="398.738" y="1200.000" width="56.797" height="19.000" />
  <rect class="deactivating" x="455.535" y="1200.000" width="0.000" height="19.000" />
  <text class="left" x="403.738" y="1214.000">dev-disk-by\x2did-wwn\x2d0x5002538d428ce390\x2dpart2.device</text>
  <rect class="activating" x="398.739" y="1220.000" width="0.000" height="19.000" />
  <rect class="active" x="398.739" y="1220.000" width="56.796" height="19.000" />
  <rect class="deactivating" x="455.535" y="1220.000" width="0.000" height="19.000" />
  <text class="left" x="403.739" y="1234.000">dev-disk-by\x2did-ata\x2dSamsung_SSD_850_EVO_250GB_S2R6NX0JC91988R\x2dpart2.device</text>
  <rect class="activating" x="398.740" y="1240.000" width="0.000" height="19.000" />
  <rect class="active" x="398.740" y="1240.000" width="56.795" height="19.000" />
  <rect class="deactivating" x="455.535" y="1240.000" width="0.000" height="19.000" />
  <text class="left" x="403.740" y="1254.000">dev-sda2.device</text>
  <rect class="activating" x="398.744" y="1260.000" width="0.000" height="19.000" />
  <rect class="active" x="398.744" y="1260.000" width="56.790" height="19.000" />
  <rect class="deactivating" x="455.535" y="1260.000" width="0.000" height="19.000" />
  <text class="left" x="403.744" y="1274.000">sys-devices-pci0000:00-0000:00:1f.2-ata1-host0-target0:0:0-0:0:0:0-block-sda-sda2.device</text>
  <rect class="activating" x="400.924" y="1280.000" width="0.000" height="19.000" />
  <rect class="active" x="400.924" y="1280.000" width="54.611" height="19.000" />
  <rect class="deactivating" x="455.535" y="1280.000" width="0.000" height="19.000" />
  <text class="left" x="405.924" y="1294.000">dev-disk-by\x2duuid-7cae4e71\x2dae25\x2d4aef\x2d9c47\x2d2d7e9c311171.device</text>
  <rect class="activating" x="400.925" y="1300.000" width="0.000" height="19.000" />
  <rect class="active" x="400.925" y="1300.000" width="54.610" height="19.000" />
  <rect class="deactivating" x="455.535" y="1300.000" width="0.000" height="19.000" />
  <text class="left" x="405.925" y="1314.000">dev-disk-by\x2dpath-pci\x2d0000:00:1f.2\x2data\x2d1\x2dpart1.device</text>
  <rect class="activating" x="400.926" y="1320.000" width="0.000" height="19.000" />
  <rect class="active" x="400.926" y="1320.000" width="54.609" height="19.000" />
  <rect class="deactivating" x="455.535" y="1320.000" width="0.000" height="19.000" />
  <text class="left" x="405.926" y="1334.000">dev-disk-by\x2dpartuuid-025fea6c\x2d01.device</text>
  <rect class="activating" x="400.927" y="1340.000" width="0.000" height="19.000" />
  <rect class="active" x="400.927" y="1340.000" width="54.608" height="19.000" />
  <rect class="deactivating" x="455.535" y="1340.000" width="0.000" height="19.000" />
  <text class="left" x="405.927" y="1354.000">dev-disk-by\x2did-wwn\x2d0x5002538d428ce390\x2dpart1.device</text>
  <rect class="activating" x="400.927" y="1360.000" width="0.000" height="19.000" />
  <rect class="active" x="400.927" y="1360.000" width="54.607" height="19.000" />
  <rect class="deactivating" x="455.535" y="1360.000" width="0.000" height="19.000" />
  <text class="left" x="405.927" y="1374.000">dev-disk-by\x2did-ata\x2dSamsung_SSD_850_EVO_250GB_S2R6NX0JC91988R\x2dpart1.device</text>
  <rect class="activating" x="400.928" y="1380.000" width="0.000" height="19.000" />
  <rect class="active" x="400.928" y="1380.000" width="54.607" height="19.000" />
  <rect class="deactivating" x="455.535" y="1380.000" width="0.000" height="19.000" />
  <text class="left" x="405.928" y="1394.000">sys-devices-pci0000:00-0000:00:1f.2-ata1-host0-target0:0:0-0:0:0:0-block-sda-sda1.device</text>
  <rect class="activating" x="405.489" y="1400.000" width="0.000" height="19.000" />
  <rect class="active" x="405.489" y="1400.000" width="50.046" height="19.000" />
  <rect class="deactivating" x="455.535" y="1400.000" width="0.000" height="19.000" />
  <text class="left" x="410.489" y="1414.000">dev-disk-by\x2dpath-pci\x2d0000:00:1f.2\x2data\x2d1\x2dpart3.device</text>
  <rect class="activating" x="405.490" y="1420.000" width="0.000" height="19.000" />
  <rect class="active" x="405.490" y="1420.000" width="50.044" height="19.000" />
  <rect class="deactivating" x="455.535" y="1420.000" width="0.000" height="19.000" />
  <text class="left" x="410.490" y="1434.000">dev-disk-by\x2dpartuuid-025fea6c\x2d03.device</text>
  <rect class="activating" x="405.491" y="1440.000" width="0.000" height="19.000" />
  <rect class="active" x="405.491" y="1440.000" width="50.044" height="19.000" />
  <rect class="deactivating" x="455.535" y="1440.000" width="0.000" height="19.000" />
  <text class="left" x="410.491" y="1454.000">dev-disk-by\x2did-wwn\x2d0x5002538d428ce390\x2dpart3.device</text>
  <rect class="activating" x="405.492" y="1460.000" width="0.000" height="19.000" />
  <rect class="active" x="405.492" y="1460.000" width="50.043" height="19.000" />
  <rect class="deactivating" x="455.535" y="1460.000" width="0.000" height="19.000" />
  <text class="left" x="410.492" y="1474.000">dev-disk-by\x2did-ata\x2dSamsung_SSD_850_EVO_250GB_S2R6NX0JC91988R\x2dpart3.device</text>
  <rect class="activating" x="405.493" y="1480.000" width="0.000" height="19.000" />
  <rect class="active" x="405.493" y="1480.000" width="50.042" height="19.000" />
  <rect class="deactivating" x="455.535" y="1480.000" width="0.000" height="19.000" />
  <text class="left" x="410.493" y="1494.000">dev-sda3.device</text>
  <rect class="activating" x="405.493" y="1500.000" width="0.000" height="19.000" />
  <rect class="active" x="405.493" y="1500.000" width="50.041" height="19.000" />
  <rect class="deactivating" x="455.535" y="1500.000" width="0.000" height="19.000" />
  <text class="left" x="410.493" y="1514.000">sys-devices-pci0000:00-0000:00:1f.2-ata1-host0-target0:0:0-0:0:0:0-block-sda-sda3.device</text>
  <rect class="activating" x="409.763" y="1520.000" width="0.000" height="19.000" />
  <rect class="active" x="409.763" y="1520.000" width="45.771" height="19.000" />
  <rect class="deactivating" x="455.535" y="1520.000" width="0.000" height="19.000" />
  <text class="left" x="414.763" y="1534.000">dev-ttyS0.device</text>
  <rect class="activating" x="409.765" y="1540.000" width="0.000" height="19.000" />
  <rect class="active" x="409.765" y="1540.000" width="45.770" height="19.000" />
  <rect class="deactivating" x="455.535" y="1540.000" width="0.000" height="19.000" />
  <text class="left" x="414.765" y="1554.000">sys-devices-platform-serial8250-tty-ttyS0.device</text>
  <rect class="activating" x="410.077" y="1560.000" width="0.000" height="19.000" />
  <rect class="active" x="410.077" y="1560.000" width="45.458" height="19.000" />
  <rect class="deactivating" x="455.535" y="1560.000" width="0.000" height="19.000" />
  <text class="left" x="415.077" y="1574.000">dev-ttyS1.device</text>
  <rect class="activating" x="410.078" y="1580.000" width="0.000" height="19.000" />
  <rect class="active" x="410.078" y="1580.000" width="45.457" height="19.000" />
  <rect class="deactivating" x="455.535" y="1580.000" width="0.000" height="19.000" />
  <text class="left" x="415.078" y="1594.000">sys-devices-platform-serial8250-tty-ttyS1.device</text>
  <rect class="activating" x="410.156" y="1600.000" width="0.000" height="19.000" />
  <rect class="active" x="410.156" y="1600.000" width="45.379" height="19.000" />
  <rect class="deactivating" x="455.535" y="1600.000" width="0.000" height="19.000" />
  <text class="left" x="415.156" y="1614.000">local-fs-pre.target</text>
  <rect class="activating" x="410.267" y="1620.000" width="2.228" height="19.000" />
  <rect class="active" x="412.495" y="1620.000" width="43.040" height="19.000" />
  <rect class="deactivating" x="455.535" y="1620.000" width="0.000" height="19.000" />
  <text class="left" x="415.267" y="1634.000">systemd-fsck@dev-sda2.service (22ms)</text>
  <rect class="activating" x="410.727" y="1640.000" width="0.000" height="19.000" />
  <rect class="active" x="410.727" y="1640.000" width="44.807" height="19.000" />
  <rect class="deactivating" x="455.535" y="1640.000" width="0.000" height="19.000" />
  <text class="left" x="415.727" y="1654.000">dev-ttyS2.device</text>
  <rect class="activating" x="410.729" y="1660.000" width="0.000" height="19.000" />
  <rect class="active" x="410.729" y="1660.000" width="44.806" height="19.000" />
  <rect class="deactivating" x="455.535" y="1660.000" width="0.000" height="19.000" />
  <text class="left" x="415.729" y="1674.000">sys-devices-platform-serial8250-tty-ttyS2.device</text>
  <rect class="activating" x="411.028" y="1680.000" width="0.000" height="19.000" />
  <rect class="active" x="411.028" y="1680.000" width="44.507" height="19.000" />
  <rect class="deactivating" x="455.535" y="1680.000" width="0.000" height="19.000" />
  <text class="left" x="416.028" y="1694.000">dev-ttyS3.device</text>
  <rect class="activating" x="411.029" y="1700.000" width="0.000" height="19.000" />
  <rect class="active" x="411.029" y="1700.000" width="44.506" height="19.000" />
  <rect class="deactivating" x="455.535" y="1700.000" width="0.000" height="19.000" />
  <text class="left" x="416.029" y="1714.000">sys-devices-platform-serial8250-tty-ttyS3.device</text>
  <rect class="activating" x="412.636" y="1720.000" width="2.232" height="19.000" />
  <rect class="active" x="414.868" y="1720.000" width="40.667" height="19.000" />
  <rect class="deactivating" x="455.535" y="1720.000" width="0.000" height="19.000" />
  <text class="left" x="417.636" y="1734.000">home.mount (22ms)</text>
  <rect class="activating" x="414.885" y="1740.000" width="0.000" height="19.000" />
  <rect class="active" x="414.885" y="1740.000" width="40.650" height="19.000" />
  <rect class="deactivating" x="455.535" y="1740.000" width="0.000" height="19.000" />
  <text class="left" x="419.885" y="1754.000">local-fs.target</text>
  <rect class="activating" x="414.998" y="1760.000" width="2.537" height="19.000" />
  <rect class="active" x="417.534" y="1760.000" width="38.000" height="19.000" />
  <rect class="deactivating" x="455.535" y="1760.000" width="0.000" height="19.000" />
  <text class="left" x="419.998" y="1774.000">systemd-tmpfiles-setup.service (25ms)</text>
  <rect class="activating" x="417.656" y="1780.000" width="1.497" height="19.000" />
  <rect class="active" x="419.152" y="1780.000" width="36.382" height="19.000" />
  <rect class="deactivating" x="455.535" y="1780.000" width="0.000" height="19.000" />
  <text class="left" x="422.656" y="1794.000">systemd-update-utmp.service (14ms)</text>
  <rect class="activating" x="419.171" y="1800.000" width="0.000" height="19.000" />
  <rect class="active" x="419.171" y="1800.000" width="36.364" height="19.000" />
  <rect class="deactivating" x="455.535" y="1800.000" width="0.000" height="19.000" />
  <text class="left" x="424.171" y="1814.000">sysinit.target</text>
  <rect class="activating" x="419.203" y="1820.000" width="0.000" height="19.000" />
  <rect class="active" x="419.203" y="1820.000" width="36.332" height="19.000" />
  <rect class="deactivating" x="455.535" y="1820.000" width="0.000" height="19.000" />
  <text class="left" x="424.203" y="1834.000">man-db.timer</text>
  <rect class="activating" x="419.209" y="1840.000" width="0.000" height="19.000" />
  <rect class="active" x="419.209" y="1840.000" width="36.325" height="19.000" />
  <rect class="deactivating" x="455.535" y="1840.000" width="0.000" height="19.000" />
  <text class="left" x="424.209" y="1854.000">systemd-tmpfiles-clean.timer</text>
  <rect class="activating" x="419.222" y="1860.000" width="0.000" height="19.000" />
  <rect class="active" x="419.222" y="1860.000" width="36.312" height="19.000" />
  <rect class="deactivating" x="455.535" y="1860.000" width="0.000" height="19.000" />
  <text class="left" x="424.222" y="1874.000">dbus.socket</text>
  <rect class="activating" x="419.226" y="1880.000" width="0.000" height="19.000" />
  <rect class="active" x="419.226" y="1880.000" width="36.309" height="19.000" />
  <rect class="deactivating" x="455.535" y="1880.000" width="0.000" height="19.000" />
  <text class="left" x="424.226" y="1894.000">sockets.target</text>
  <rect class="activating" x="419.234" y="1900.000" width="0.000" height="19.000" />
  <rect class="active" x="419.234" y="1900.000" width="36.300" height="19.000" />
  <rect class="deactivating" x="455.535" y="1900.000" width="0.000" height="19.000" />
  <text class="left" x="424.234" y="1914.000">shadow.timer</text>
  <rect class="activating" x="419.237" y="1920.000" width="0.000" height="19.000" />
  <rect class="active" x="419.237" y="1920.000" width="36.298" height="19.000" />
  <rect class="deactivating" x="455.535" y="1920.000" width="0.000" height="19.000" />
  <text class="left" x="424.237" y="1934.000">basic.target</text>
  <rect class="activating" x="419.336" y="1940.000" width="5.377" height="19.000" />
  <rect class="active" x="424.714" y="1940.000" width="30.821" height="19.000" />
  <rect class="deactivating" x="455.535" y="1940.000" width="0.000" height="19.000" />
  <text class="left" x="424.336" y="1954.000">wpa_supplicant.service (53ms)</text>
  <rect class="activating" x="419.582" y="1960.000" width="4.923" height="19.000" />
  <rect class="active" x="424.505" y="1960.000" width="31.030" height="19.000" />
  <rect class="deactivating" x="455.535" y="1960.000" width="0.000" height="19.000" />
  <text class="left" x="424.582" y="1974.000">systemd-logind.service (49ms)</text>
  <rect class="activating" x="419.778" y="1980.000" width="1.995" height="19.000" />
  <rect class="active" x="421.773" y="1980.000" width="33.762" height="19.000" />
  <rect class="deactivating" x="455.535" y="1980.000" width="0.000" height="19.000" />
  <text class="left" x="424.778" y="1994.000">netctl.service (19ms)</text>
  <rect class="activating" x="420.249" y="2000.000" width="8.150" height="19.000" />
  <rect class="active" x="428.399" y="2000.000" width="27.136" height="19.000" />
  <rect class="deactivating" x="455.535" y="2000.000" width="0.000" height="19.000" />
  <text class="left" x="425.249" y="2014.000">iptables.service (81ms)</text>
  <rect class="activating" x="420.680" y="2020.000" width="0.000" height="19.000" />
  <rect class="active" x="420.680" y="2020.000" width="34.854" height="19.000" />
  <rect class="deactivating" x="455.535" y="2020.000" width="0.000" height="19.000" />
  <text class="left" x="425.680" y="2034.000">dbus.service</text>
  <rect class="activating" x="421.663" y="2040.000" width="0.000" height="19.000" />
  <rect class="active" x="421.663" y="2040.000" width="33.872" height="19.000" />
  <rect class="deactivating" x="455.535" y="2040.000" width="0.000" height="19.000" />
  <text class="left" x="426.663" y="2054.000">logrotate.timer</text>
  <rect class="activating" x="421.669" y="2060.000" width="0.000" height="19.000" />
  <rect class="active" x="421.669" y="2060.000" width="33.865" height="19.000" />
  <rect class="deactivating" x="455.535" y="2060.000" width="0.000" height="19.000" />
  <text class="left" x="426.669" y="2074.000">timers.target</text>
  <rect class="activating" x="427.205" y="2080.000" width="0.000" height="19.000" />
  <rect class="active" x="427.205" y="2080.000" width="28.330" height="19.000" />
  <rect class="deactivating" x="455.535" y="2080.000" width="0.000" height="19.000" />
  <text class="left" x="432.205" y="2094.000">dev-rfkill.device</text>
  <rect class="activating" x="427.206" y="2100.000" width="0.000" height="19.000" />
  <rect class="active" x="427.206" y="2100.000" width="28.328" height="19.000" />
  <rect class="deactivating" x="455.535" y="2100.000" width="0.000" height="19.000" />
  <text class="left" x="432.206" y="2114.000">sys-devices-virtual-misc-rfkill.device</text>
  <rect class="activating" x="427.346" y="2120.000" width="0.000" height="19.000" />
  <rect class="active" x="427.346" y="2120.000" width="28.189" height="19.000" />
  <rect class="deactivating" x="455.535" y="2120.000" width="0.000" height="19.000" />
  <text class="left" x="432.346" y="2134.000">systemd-rfkill.socket</text>
  <rect class="activating" x="428.433" y="2140.000" width="0.000" height="19.000" />
  <rect class="active" x="428.433" y="2140.000" width="27.102" height="19.000" />
  <rect class="deactivating" x="455.535" y="2140.000" width="0.000" height="19.000" />
  <text class="left" x="433.433" y="2154.000">network-pre.target</text>
  <rect class="activating" x="428.542" y="2160.000" width="6.856" height="19.000" />
  <rect class="active" x="435.398" y="2160.000" width="20.137" height="19.000" />
  <rect class="deactivating" x="455.535" y="2160.000" width="0.000" height="19.000" />
  <text class="left" x="433.542" y="2174.000">NetworkManager.service (68ms)</text>
  <rect class="activating" x="435.423" y="2180.000" width="0.000" height="19.000" />
  <rect class="active" x="435.423" y="2180.000" width="20.112" height="19.000" />
  <rect class="deactivating" x="455.535" y="2180.000" width="0.000" height="19.000" />
  <text class="left" x="440.423" y="2194.000">network.target</text>
  <rect class="activating" x="435.525" y="2200.000" width="0.680" height="19.000" />
  <rect class="active" x="436.205" y="2200.000" width="19.329" height="19.000" />
  <rect class="deactivating" x="455.535" y="2200.000" width="0.000" height="19.000" />
  <text class="left" x="440.525" y="2214.000">systemd-user-sessions.service (6ms)</text>
  <rect class="activating" x="436.240" y="2220.000" width="0.000" height="19.000" />
  <rect class="active" x="436.240" y="2220.000" width="19.295" height="19.000" />
  <rect class="deactivating" x="455.535" y="2220.000" width="0.000" height="19.000" />
  <text class="left" x="441.240" y="2234.000">multi-user.target</text>
  <rect class="activating" x="436.321" y="2240.000" width="0.000" height="19.000" />
  <rect class="active" x="436.321" y="2240.000" width="19.213" height="19.000" />
  <rect class="deactivating" x="455.535" y="2240.000" width="0.000" height="19.000" />
  <text class="left" x="441.321" y="2254.000">sddm.service</text>
  <rect class="activating" x="436.407" y="2260.000" width="0.000" height="19.000" />
  <rect class="active" x="436.407" y="2260.000" width="19.128" height="19.000" />
  <rect class="deactivating" x="455.535" y="2260.000" width="0.000" height="19.000" />
  <text class="left" x="441.407" y="2274.000">graphical.target</text>
  <rect class="activating" x="440.297" y="2280.000" width="0.000" height="19.000" />
  <rect class="active" x="440.297" y="2280.000" width="15.238" height="19.000" />
  <rect class="deactivating" x="455.535" y="2280.000" width="0.000" height="19.000" />
  <text class="left" x="445.297" y="2294.000">sys-devices-pci0000:00-0000:00:1b.0-sound-card0.device</text>
  <rect class="activating" x="440.306" y="2300.000" width="0.000" height="19.000" />
  <rect class="active" x="440.306" y="2300.000" width="15.229" height="19.000" />
  <rect class="deactivating" x="455.535" y="2300.000" width="0.000" height="19.000" />
  <text class="left" x="445.306" y="2314.000">sound.target</text>
  <rect class="activating" x="447.390" y="2320.000" width="0.000" height="19.000" />
  <rect class="active" x="447.390" y="2320.000" width="8.145" height="19.000" />
  <rect class="deactivating" x="455.535" y="2320.000" width="0.000" height="19.000" />
  <text class="left" x="452.390" y="2334.000">sys-subsystem-net-devices-enp0s25.device</text>
  <rect class="activating" x="447.391" y="2340.000" width="0.000" height="19.000" />
  <rect class="active" x="447.391" y="2340.000" width="8.144" height="19.000" />
  <rect class="deactivating" x="455.535" y="2340.000" width="0.000" height="19.000" />
  <text class="left" x="452.391" y="2354.000">sys-devices-pci0000:00-0000:00:19.0-net-enp0s25.device</text>
  <rect class="activating" x="448.931" y="2360.000" width="0.000" height="19.000" />
  <rect class="active" x="448.931" y="2360.000" width="6.604" height="19.000" />
  <rect class="deactivating" x="455.535" y="2360.000" width="0.000" height="19.000" />
  <text class="left" x="453.931" y="2374.000">sys-subsystem-net-devices-wlp3s0.device</text>
  <rect class="activating" x="448.933" y="2380.000" width="0.000" height="19.000" />
  <rect class="active" x="448.933" y="2380.000" width="6.602" height="19.000" />
  <rect class="deactivating" x="455.535" y="2380.000" width="0.000" height="19.000" />
  <text class="left" x="453.933" y="2394.000">sys-devices-pci0000:00-0000:00:1c.1-0000:03:00.0-net-wlp3s0.device</text>
</g>
<g transform="translate(20,100)">
  <rect class="activating" x="0.000" y="2420.000" width="30.000" height="19.000" />
  <text class="left" x="45.000" y="2434.000">Activating</text>
  <rect class="active" x="0.000" y="2440.000" width="30.000" height="19.000" />
  <text class="left" x="45.000" y="2454.000">Active</text>
  <rect class="deactivating" x="0.000" y="2460.000" width="30.000" height="19.000" />
  <text class="left" x="45.000" y="2474.000">Deactivating</text>
  <rect class="security" x="0.000" y="2480.000" width="30.000" height="19.000" />
  <text class="left" x="45.000" y="2494.000">Setting up security module</text>
  <rect class="generators" x="0.000" y="2500.000" width="30.000" height="19.000" />
  <text class="left" x="45.000" y="2514.000">Generators</text>
  <rect class="unitsload" x="0.000" y="2520.000" width="30.000" height="19.000" />
  <text class="left" x="45.000" y="2534.000">Loading unit files</text>
</g>

</svg>
